<mxfile host="Electron" modified="2024-03-28T21:24:17.726Z" agent="Mozilla/5.0 (Windows NT 10.0; Win64; x64) AppleWebKit/537.36 (KHTML, like Gecko) draw.io/24.1.0 Chrome/120.0.6099.109 Electron/28.1.0 Safari/537.36" etag="1lAbLbn_aChYohRqrIsw" version="24.1.0" type="device">
  <diagram name="Страница — 1" id="YVlXWQxhL57fX_9mHPmj">
    <mxGraphModel dx="2140" dy="798" grid="1" gridSize="10" guides="1" tooltips="1" connect="1" arrows="1" fold="1" page="1" pageScale="1" pageWidth="827" pageHeight="1169" math="0" shadow="0">
      <root>
        <mxCell id="0" />
        <mxCell id="1" parent="0" />
        <mxCell id="4Ygmp9V6lyTi_zGmmLS0-1" value="" style="whiteSpace=wrap;html=1;aspect=fixed;" vertex="1" parent="1">
          <mxGeometry x="260" y="200" width="530" height="530" as="geometry" />
        </mxCell>
        <mxCell id="4Ygmp9V6lyTi_zGmmLS0-2" value="&lt;font style=&quot;font-size: 17px;&quot;&gt;Docker Compose&lt;/font&gt;&lt;div style=&quot;font-size: 17px;&quot;&gt;&lt;br&gt;&lt;/div&gt;" style="text;html=1;align=center;verticalAlign=middle;resizable=0;points=[];autosize=1;strokeColor=none;fillColor=none;" vertex="1" parent="1">
          <mxGeometry x="245" y="168" width="150" height="50" as="geometry" />
        </mxCell>
        <mxCell id="4Ygmp9V6lyTi_zGmmLS0-18" style="edgeStyle=orthogonalEdgeStyle;rounded=0;orthogonalLoop=1;jettySize=auto;html=1;exitX=0;exitY=0.5;exitDx=0;exitDy=0;entryX=0;entryY=0.75;entryDx=0;entryDy=0;fillColor=#60a917;strokeColor=#2D7600;" edge="1" parent="1" source="4Ygmp9V6lyTi_zGmmLS0-3" target="4Ygmp9V6lyTi_zGmmLS0-9">
          <mxGeometry relative="1" as="geometry">
            <Array as="points">
              <mxPoint x="550" y="290" />
              <mxPoint x="550" y="640" />
            </Array>
          </mxGeometry>
        </mxCell>
        <mxCell id="4Ygmp9V6lyTi_zGmmLS0-3" value="Diplom 1" style="whiteSpace=wrap;html=1;aspect=fixed;" vertex="1" parent="1">
          <mxGeometry x="610" y="250" width="80" height="80" as="geometry" />
        </mxCell>
        <mxCell id="4Ygmp9V6lyTi_zGmmLS0-19" style="edgeStyle=orthogonalEdgeStyle;rounded=0;orthogonalLoop=1;jettySize=auto;html=1;exitX=0;exitY=0.5;exitDx=0;exitDy=0;entryX=0;entryY=0.5;entryDx=0;entryDy=0;fillColor=#60a917;strokeColor=#2D7600;" edge="1" parent="1" source="4Ygmp9V6lyTi_zGmmLS0-4" target="4Ygmp9V6lyTi_zGmmLS0-9">
          <mxGeometry relative="1" as="geometry">
            <Array as="points">
              <mxPoint x="570" y="395" />
              <mxPoint x="570" y="620" />
            </Array>
          </mxGeometry>
        </mxCell>
        <mxCell id="4Ygmp9V6lyTi_zGmmLS0-4" value="Diplom 2" style="whiteSpace=wrap;html=1;aspect=fixed;" vertex="1" parent="1">
          <mxGeometry x="610" y="355" width="80" height="80" as="geometry" />
        </mxCell>
        <mxCell id="4Ygmp9V6lyTi_zGmmLS0-20" style="edgeStyle=orthogonalEdgeStyle;rounded=0;orthogonalLoop=1;jettySize=auto;html=1;exitX=0;exitY=0.5;exitDx=0;exitDy=0;entryX=0;entryY=0.25;entryDx=0;entryDy=0;fillColor=#60a917;strokeColor=#2D7600;" edge="1" parent="1" source="4Ygmp9V6lyTi_zGmmLS0-5" target="4Ygmp9V6lyTi_zGmmLS0-9">
          <mxGeometry relative="1" as="geometry" />
        </mxCell>
        <mxCell id="4Ygmp9V6lyTi_zGmmLS0-5" value="Diplom 3" style="whiteSpace=wrap;html=1;aspect=fixed;" vertex="1" parent="1">
          <mxGeometry x="610" y="470" width="80" height="80" as="geometry" />
        </mxCell>
        <mxCell id="4Ygmp9V6lyTi_zGmmLS0-28" style="edgeStyle=orthogonalEdgeStyle;rounded=0;orthogonalLoop=1;jettySize=auto;html=1;exitX=1;exitY=0.25;exitDx=0;exitDy=0;entryX=1;entryY=0.5;entryDx=0;entryDy=0;fillColor=#0050ef;strokeColor=#001DBC;" edge="1" parent="1" source="4Ygmp9V6lyTi_zGmmLS0-9" target="4Ygmp9V6lyTi_zGmmLS0-5">
          <mxGeometry relative="1" as="geometry" />
        </mxCell>
        <mxCell id="4Ygmp9V6lyTi_zGmmLS0-29" style="edgeStyle=orthogonalEdgeStyle;rounded=0;orthogonalLoop=1;jettySize=auto;html=1;exitX=1;exitY=0.5;exitDx=0;exitDy=0;entryX=1;entryY=0.5;entryDx=0;entryDy=0;fillColor=#0050ef;strokeColor=#001DBC;" edge="1" parent="1" source="4Ygmp9V6lyTi_zGmmLS0-9" target="4Ygmp9V6lyTi_zGmmLS0-4">
          <mxGeometry relative="1" as="geometry">
            <Array as="points">
              <mxPoint x="720" y="620" />
              <mxPoint x="720" y="395" />
            </Array>
          </mxGeometry>
        </mxCell>
        <mxCell id="4Ygmp9V6lyTi_zGmmLS0-30" style="edgeStyle=orthogonalEdgeStyle;rounded=0;orthogonalLoop=1;jettySize=auto;html=1;exitX=1;exitY=0.75;exitDx=0;exitDy=0;entryX=1;entryY=0.5;entryDx=0;entryDy=0;fillColor=#0050ef;strokeColor=#001DBC;" edge="1" parent="1" source="4Ygmp9V6lyTi_zGmmLS0-9" target="4Ygmp9V6lyTi_zGmmLS0-3">
          <mxGeometry relative="1" as="geometry">
            <Array as="points">
              <mxPoint x="730" y="640" />
              <mxPoint x="730" y="290" />
            </Array>
          </mxGeometry>
        </mxCell>
        <mxCell id="4Ygmp9V6lyTi_zGmmLS0-9" value="Data Base&lt;br&gt;PostgreSQL" style="whiteSpace=wrap;html=1;aspect=fixed;" vertex="1" parent="1">
          <mxGeometry x="610" y="580" width="80" height="80" as="geometry" />
        </mxCell>
        <mxCell id="4Ygmp9V6lyTi_zGmmLS0-10" value=":8100" style="text;html=1;align=center;verticalAlign=middle;resizable=0;points=[];autosize=1;strokeColor=none;fillColor=none;" vertex="1" parent="1">
          <mxGeometry x="740" y="275" width="50" height="30" as="geometry" />
        </mxCell>
        <mxCell id="4Ygmp9V6lyTi_zGmmLS0-11" value=":8200" style="text;html=1;align=center;verticalAlign=middle;resizable=0;points=[];autosize=1;strokeColor=none;fillColor=none;" vertex="1" parent="1">
          <mxGeometry x="740" y="380" width="50" height="30" as="geometry" />
        </mxCell>
        <mxCell id="4Ygmp9V6lyTi_zGmmLS0-12" value=":8300" style="text;html=1;align=center;verticalAlign=middle;resizable=0;points=[];autosize=1;strokeColor=none;fillColor=none;" vertex="1" parent="1">
          <mxGeometry x="740" y="495" width="50" height="30" as="geometry" />
        </mxCell>
        <mxCell id="4Ygmp9V6lyTi_zGmmLS0-13" value=":5432" style="text;html=1;align=center;verticalAlign=middle;resizable=0;points=[];autosize=1;strokeColor=none;fillColor=none;" vertex="1" parent="1">
          <mxGeometry x="740" y="605" width="50" height="30" as="geometry" />
        </mxCell>
        <mxCell id="4Ygmp9V6lyTi_zGmmLS0-14" value="" style="whiteSpace=wrap;html=1;aspect=fixed;fontSize=15;" vertex="1" parent="1">
          <mxGeometry x="-310" y="315" width="290" height="290" as="geometry" />
        </mxCell>
        <mxCell id="4Ygmp9V6lyTi_zGmmLS0-15" value="&lt;font style=&quot;font-size: 16px;&quot;&gt;Nginx&lt;/font&gt;" style="text;html=1;align=center;verticalAlign=middle;resizable=0;points=[];autosize=1;strokeColor=none;fillColor=none;" vertex="1" parent="1">
          <mxGeometry x="-310" y="285" width="60" height="30" as="geometry" />
        </mxCell>
        <mxCell id="4Ygmp9V6lyTi_zGmmLS0-24" style="edgeStyle=orthogonalEdgeStyle;rounded=0;orthogonalLoop=1;jettySize=auto;html=1;exitX=1;exitY=0.5;exitDx=0;exitDy=0;entryX=0;entryY=0.75;entryDx=0;entryDy=0;fillColor=#a20025;strokeColor=#6F0000;" edge="1" parent="1" source="4Ygmp9V6lyTi_zGmmLS0-21" target="4Ygmp9V6lyTi_zGmmLS0-3">
          <mxGeometry relative="1" as="geometry" />
        </mxCell>
        <mxCell id="4Ygmp9V6lyTi_zGmmLS0-21" value="&lt;span style=&quot;color: rgb(240, 240, 240); font-family: Helvetica; font-size: 15px; font-style: normal; font-variant-ligatures: normal; font-variant-caps: normal; font-weight: 400; letter-spacing: normal; orphans: 2; text-align: center; text-indent: 0px; text-transform: none; widows: 2; word-spacing: 0px; -webkit-text-stroke-width: 0px; white-space: normal; background-color: rgb(27, 29, 30); text-decoration-thickness: initial; text-decoration-style: initial; text-decoration-color: initial; float: none; display: inline !important;&quot;&gt;htpps://domin.io/diplom1&lt;/span&gt;" style="text;whiteSpace=wrap;html=1;fontSize=15;" vertex="1" parent="1">
          <mxGeometry x="-290" y="370" width="170" height="30" as="geometry" />
        </mxCell>
        <mxCell id="4Ygmp9V6lyTi_zGmmLS0-26" style="edgeStyle=orthogonalEdgeStyle;rounded=0;orthogonalLoop=1;jettySize=auto;html=1;exitX=1;exitY=0.5;exitDx=0;exitDy=0;entryX=0;entryY=0.75;entryDx=0;entryDy=0;fillColor=#a20025;strokeColor=#6F0000;" edge="1" parent="1" source="4Ygmp9V6lyTi_zGmmLS0-22" target="4Ygmp9V6lyTi_zGmmLS0-4">
          <mxGeometry relative="1" as="geometry" />
        </mxCell>
        <mxCell id="4Ygmp9V6lyTi_zGmmLS0-22" value="&lt;span style=&quot;color: rgb(240, 240, 240); font-family: Helvetica; font-size: 15px; font-style: normal; font-variant-ligatures: normal; font-variant-caps: normal; font-weight: 400; letter-spacing: normal; orphans: 2; text-align: center; text-indent: 0px; text-transform: none; widows: 2; word-spacing: 0px; -webkit-text-stroke-width: 0px; white-space: normal; background-color: rgb(27, 29, 30); text-decoration-thickness: initial; text-decoration-style: initial; text-decoration-color: initial; float: none; display: inline !important;&quot;&gt;htpps://domin.io/diplom2&lt;/span&gt;" style="text;whiteSpace=wrap;html=1;fontSize=15;" vertex="1" parent="1">
          <mxGeometry x="-290" y="440" width="170" height="30" as="geometry" />
        </mxCell>
        <mxCell id="4Ygmp9V6lyTi_zGmmLS0-27" style="edgeStyle=orthogonalEdgeStyle;rounded=0;orthogonalLoop=1;jettySize=auto;html=1;exitX=1;exitY=0.5;exitDx=0;exitDy=0;entryX=0;entryY=0.25;entryDx=0;entryDy=0;fillColor=#a20025;strokeColor=#6F0000;" edge="1" parent="1" source="4Ygmp9V6lyTi_zGmmLS0-23" target="4Ygmp9V6lyTi_zGmmLS0-5">
          <mxGeometry relative="1" as="geometry" />
        </mxCell>
        <mxCell id="4Ygmp9V6lyTi_zGmmLS0-23" value="&lt;span style=&quot;color: rgb(240, 240, 240); font-family: Helvetica; font-size: 15px; font-style: normal; font-variant-ligatures: normal; font-variant-caps: normal; font-weight: 400; letter-spacing: normal; orphans: 2; text-align: center; text-indent: 0px; text-transform: none; widows: 2; word-spacing: 0px; -webkit-text-stroke-width: 0px; white-space: normal; background-color: rgb(27, 29, 30); text-decoration-thickness: initial; text-decoration-style: initial; text-decoration-color: initial; float: none; display: inline !important;&quot;&gt;htpps://domin.io/diplom3&lt;/span&gt;" style="text;whiteSpace=wrap;html=1;fontSize=15;" vertex="1" parent="1">
          <mxGeometry x="-290" y="510" width="170" height="30" as="geometry" />
        </mxCell>
      </root>
    </mxGraphModel>
  </diagram>
</mxfile>
